<svg id="Layer_1" xmlns="http://www.w3.org/2000/svg" viewBox="0 0 197.745 80" width="197.745" height="80"><path d="M52.254 51.885c-0.287 -2.488 -1.374 -4.763 -3.239 -6.766a40.321 40.321 0 0 0 -1.421 -1.435c-0.287 -0.28 -0.574 -0.567 -0.854 -0.854 -0.13 -0.13 -0.246 -0.267 -0.362 -0.403l0.492 -0.472c0.554 -0.533 1.08 -1.039 1.599 -1.558 1.421 -1.415 2.385 -2.863 2.939 -4.442 0.636 -1.811 0.902 -3.643 0.82 -5.597 -0.096 -2.166 -0.704 -4.271 -1.811 -6.267 -1.462 -2.631 -3.608 -4.476 -6.383 -5.495 -1.387 -0.506 -2.645 -0.847 -3.841 -1.032 -1.818 -0.28 -3.547 -0.431 -5.139 -0.444 -4.968 -0.048 -10.026 -0.048 -14.912 -0.048h-4.401c-0.957 0 -1.934 0.014 -2.877 0.034h-0.581c-0.697 0.021 -0.841 0.431 -0.834 0.772v5.679l0.369 0.034c0.082 0.007 0.164 0.021 0.246 0.034 0.212 0.027 0.424 0.055 0.656 0.055h0.841c5.474 0.034 11.133 0.062 16.703 0.068 0.759 0 1.531 -0.021 2.283 -0.034 0.779 -0.021 1.586 -0.041 2.371 -0.034 1.538 0.007 3.164 0.048 4.722 0.465 0.929 0.246 1.661 0.56 2.31 0.984 1.223 0.806 2.112 2.023 2.713 3.725 0.273 0.772 0.431 1.784 0.26 2.816 -0.185 1.121 -0.588 2.153 -1.565 3.239 -0.786 0.868 -1.722 1.504 -2.72 2.173l-0.116 0.075c-0.711 0.478 -0.793 0.478 -1.476 0.021 -0.314 -0.212 -0.636 -0.431 -0.95 -0.649 -0.608 -0.417 -1.237 -0.841 -1.859 -1.251 -2.679 -1.756 -4.975 -3.144 -7.483 -4.23 -1.811 -0.786 -3.253 -1.244 -4.661 -1.476 -2.658 -0.444 -4.968 -0.171 -7.06 0.834 -2.597 1.251 -4.435 3.321 -5.631 6.335 -0.396 1.005 -0.67 2.091 -0.882 3.533 -0.226 1.504 -0.191 3.055 0.089 4.88 0.273 1.763 0.875 3.472 1.784 5.071 0.854 1.504 1.75 2.57 2.829 3.362 1.736 1.278 3.779 1.92 6.24 1.961 2.207 0.034 4.374 -0.376 6.445 -1.237 1.38 -0.574 2.781 -1.278 4.162 -2.091 1.442 -0.854 2.877 -1.784 4.258 -2.679l1.558 -1.005c0.642 -0.41 1.292 -0.834 1.914 -1.244l0.601 -0.396c1.066 0.888 2.057 1.948 3.185 3.39 0.875 1.128 1.367 2.351 1.456 3.649 0.096 1.428 -0.314 2.781 -1.216 4.032 -1.032 1.421 -2.44 2.378 -4.305 2.925 -1.442 0.417 -2.952 0.458 -4.264 0.465 -3.151 0.014 -6.356 0 -9.452 -0.014 -1.141 0 -2.283 -0.014 -3.431 -0.014 -0.923 0 -1.845 -0.007 -2.768 -0.014 -1.961 -0.007 -3.998 -0.021 -5.994 -0.021 -0.513 0 -1.018 0.062 -1.504 0.123l-0.13 0.014c-0.267 0.034 -0.595 0.328 -0.595 0.649 -0.014 1.305 -0.014 2.631 -0.007 3.909v0.8c0 0.854 0.191 1.052 1.018 1.059h1.408c1.907 0.014 3.875 0.021 5.816 0.021h0.185c2.016 0 4.025 0 6.041 -0.007 2.337 0 4.675 -0.007 7.012 -0.007h0.171c2.788 0 5.679 0 8.495 -0.677 1.462 -0.355 2.542 -0.745 3.499 -1.285 2.809 -1.579 4.893 -3.841 6.192 -6.711 0.998 -2.221 1.353 -4.675 1.052 -7.306M34.164 42.337c-0.082 0.062 -0.164 0.123 -0.239 0.178 -0.499 0.369 -0.977 0.724 -1.462 1.046 -0.806 0.526 -1.688 1.066 -2.699 1.647l-0.478 0.273c-1.51 0.868 -3.069 1.77 -4.757 2.194 -1.825 0.458 -3.267 0.362 -4.531 -0.308 -1.251 -0.663 -2.057 -1.709 -2.46 -3.205 -0.54 -1.996 -0.205 -3.793 0.984 -5.344 0.923 -1.196 2.214 -1.777 3.95 -1.777h0.308c1.346 0.055 2.679 0.437 4.059 1.182l0.8 0.431c1.852 0.998 3.766 2.037 5.638 3.069 0.28 0.157 0.547 0.355 0.861 0.588 0.007 0 0.021 0.014 0.027 0.021" style="fill:#fff;"/><g><path d="M71.621 59.108h-6.52c-2.057 0 -3.697 -0.478 -4.9 -1.442q-1.415 -1.128 -2.009 -3.075c-0.26 -0.854 -0.39 -1.777 -0.39 -2.781 0 -0.232 0 -0.396 0.007 -0.492 0 -0.096 0.014 -0.178 0.034 -0.253V43.943h3.615v7.121c0 1.285 0.287 2.365 0.868 3.239q1.005 1.517 2.768 1.517h6.52v3.287Z" style="fill:#fff;"/><path x="106.99" y="64.31" width="5.29" height="22.19" style="fill:#fff;" d="M73.118 43.95H76.733V59.115H73.118V43.95z"/><path d="M103.393 59.108h-3.718c-0.294 -1.059 -0.588 -2.119 -0.868 -3.178 -0.697 -2.46 -1.305 -4.415 -1.832 -5.877 -0.752 -2.105 -1.298 -3.13 -1.647 -3.089 -0.239 0.048 -0.403 0.137 -0.492 0.253 -0.082 0.123 -0.13 0.287 -0.13 0.506v8.331c0 0.964 -0.431 1.756 -1.285 2.385 -0.806 0.588 -1.763 0.882 -2.877 0.882 -0.964 0 -1.832 -0.239 -2.597 -0.711 -0.854 -0.533 -1.462 -1.285 -1.818 -2.276 -0.068 -0.198 -0.396 -1.271 -0.977 -3.226 -0.526 -1.77 -0.984 -3.157 -1.38 -4.162 -0.547 -1.367 -0.984 -2.03 -1.326 -1.989 -0.226 0.048 -0.383 0.137 -0.472 0.253 -0.089 0.123 -0.137 0.287 -0.137 0.506v11.386h-3.615V46.93c0 -1.107 0.451 -1.955 1.353 -2.535 0.779 -0.499 1.77 -0.745 2.987 -0.745 1.627 0 2.911 0.759 3.868 2.276 0.642 1.011 1.251 2.645 1.832 4.907 0.642 2.488 1.114 4.025 1.408 4.62 0.089 0.191 0.219 0.342 0.383 0.451q0.246 0.164 0.513 0.164c0.164 0 0.287 -0.048 0.383 -0.15 0.096 -0.096 0.144 -0.253 0.144 -0.458V46.944c0 -1.107 0.451 -1.955 1.353 -2.535 0.779 -0.499 1.77 -0.745 2.987 -0.745 0.991 0 1.866 0.321 2.624 0.97 0.813 0.697 1.428 1.729 1.845 3.089z" style="fill:#fff;"/><path d="M113.938 59.108h-5.337c-1.92 0 -3.431 -0.772 -4.538 -2.317 -0.998 -1.387 -1.497 -3.103 -1.497 -5.139s0.513 -3.827 1.524 -5.283q1.681 -2.419 4.511 -2.419h5.337q2.829 0 4.511 2.419c1.018 1.456 1.524 3.219 1.524 5.296s-0.492 3.745 -1.483 5.126q-1.661 2.317 -4.552 2.317m-0.601 -3.287c0.854 0 1.545 -0.465 2.064 -1.387 0.472 -0.841 0.711 -1.859 0.711 -3.048s-0.226 -2.132 -0.683 -2.918c-0.513 -0.875 -1.203 -1.312 -2.091 -1.312h-4.135q-1.322 0 -2.091 1.312c-0.458 0.786 -0.683 1.756 -0.683 2.918s0.232 2.214 0.697 3.048c0.519 0.929 1.21 1.387 2.078 1.387z" style="fill:#fff;"/><path d="M70.344 33.371c0.335 0.403 0.581 0.861 0.745 1.367q0.246 0.759 0.246 1.62c0 1.264 -0.369 2.344 -1.114 3.239 -0.827 0.998 -1.934 1.497 -3.335 1.497H57.55V37.861h8.734c0.403 0 0.724 -0.15 0.964 -0.444 0.212 -0.26 0.321 -0.588 0.321 -0.977s-0.103 -0.69 -0.308 -0.936c-0.232 -0.28 -0.56 -0.417 -0.977 -0.417H57.55V31.642h8.734c0.41 0 0.731 -0.13 0.95 -0.396 0.226 -0.267 0.335 -0.581 0.335 -0.936 0 -0.39 -0.109 -0.711 -0.321 -0.97 -0.239 -0.294 -0.567 -0.444 -0.964 -0.444H57.55V25.628h9.335q2.081 0 3.342 1.517c0.759 0.916 1.141 2.016 1.141 3.287 0 0.567 -0.089 1.1 -0.26 1.606a3.827 3.827 0 0 1 -0.772 1.326" style="fill:#fff;"/><path d="M88.96 41.1h-3.882l-4.285 -11.905c-0.027 -0.13 -0.123 -0.191 -0.28 -0.191 -0.15 0 -0.267 0.062 -0.335 0.191l-4.189 11.905h-3.936c0.226 -0.731 0.704 -2.194 1.442 -4.381s1.456 -4.258 2.153 -6.205c0.779 -2.166 1.251 -3.376 1.421 -3.622 0.321 -0.431 0.793 -0.759 1.408 -0.991s1.292 -0.342 2.016 -0.342 1.394 0.116 2.009 0.342 1.08 0.56 1.401 0.991c0.198 0.253 0.683 1.456 1.449 3.595 0.472 1.319 1.182 3.383 2.125 6.205l1.476 4.408" style="fill:#fff;"/><path d="M97.762 41.1h-8.023V25.635h8.023c1.9 0 3.41 0.82 4.538 2.453 1.018 1.476 1.531 3.28 1.531 5.406s-0.499 3.82 -1.504 5.242c-1.121 1.579 -2.645 2.365 -4.565 2.365m-0.608 -3.356q1.292 0 2.071 -1.415c0.472 -0.861 0.711 -1.9 0.711 -3.11s-0.226 -2.173 -0.683 -2.973c-0.513 -0.895 -1.21 -1.339 -2.098 -1.339h-3.786v8.837z" style="fill:#fff;"/><path d="M118.893 28.901h-7.415c-0.895 0 -1.599 0.444 -2.112 1.339 -0.458 0.8 -0.683 1.791 -0.683 2.973s0.239 2.255 0.711 3.11c0.519 0.943 1.216 1.415 2.084 1.415l1.435 0.062h1.797c0.376 0 0.67 -0.144 0.888 -0.437 0.212 -0.294 0.321 -0.629 0.321 -1.005s-0.103 -0.704 -0.308 -0.97 -0.506 -0.396 -0.902 -0.396h-1.797v-3.342h2.392c1.387 0 2.488 0.492 3.294 1.469 0.724 0.875 1.087 1.961 1.087 3.253s-0.362 2.371 -1.087 3.253c-0.806 0.977 -1.907 1.469 -3.294 1.469h-4.429c-1.927 0 -3.451 -0.786 -4.565 -2.365 -1.005 -1.415 -1.504 -3.164 -1.504 -5.242s0.513 -3.909 1.531 -5.392c1.128 -1.647 2.645 -2.467 4.538 -2.467h8.016v3.267Z" style="fill:#fff;"/><path d="M134.215 41.1h-9.335c-1.401 0 -2.501 -0.492 -3.321 -1.483 -0.738 -0.888 -1.1 -1.975 -1.1 -3.267 0 -1.162 0.308 -2.173 0.929 -3.028 -0.622 -0.854 -0.929 -1.852 -0.929 -2.993 0 -1.264 0.369 -2.337 1.1 -3.226 0.813 -0.977 1.92 -1.469 3.321 -1.469h9.335v3.267h-8.734c-0.396 0 -0.704 0.144 -0.936 0.424 -0.226 0.28 -0.342 0.608 -0.342 0.991s0.109 0.683 0.328 0.943 0.533 0.39 0.95 0.39h8.734v3.342h-9.226q-0.359 0.154 -0.574 0.533c-0.137 0.253 -0.212 0.533 -0.212 0.834 0 0.383 0.109 0.711 0.328 0.991s0.533 0.417 0.95 0.417h8.734v3.328Z" style="fill:#fff;"/><path x="84.19" y="38.37" width="5.09" height="20.74" style="fill:#fff;" d="M57.536 26.222H61.015V40.396H57.536V26.222z"/><path d="M71.546 59.238h-6.492c-2.05 0 -3.677 -0.478 -4.88 -1.442 -0.943 -0.752 -1.613 -1.784 -2.002 -3.089q-0.39 -1.281 -0.39 -2.788c0 -0.232 0 -0.396 0.007 -0.492 0 -0.096 0.014 -0.178 0.034 -0.253V44.025h3.602v7.148c0 1.285 0.287 2.371 0.868 3.253 0.67 1.011 1.586 1.517 2.761 1.517h6.492v3.301Z" style="fill:#fff;"/><path x="106.87" y="64.41" width="5.27" height="22.27" style="fill:#fff;" d="M73.036 44.019H76.638V59.238H73.036V44.019z"/><path d="M103.188 59.238h-3.704c-0.294 -1.066 -0.581 -2.125 -0.868 -3.192 -0.69 -2.467 -1.298 -4.435 -1.825 -5.898 -0.745 -2.112 -1.292 -3.144 -1.64 -3.103 -0.239 0.048 -0.403 0.137 -0.485 0.253 -0.082 0.123 -0.123 0.287 -0.123 0.506v8.365c0 0.964 -0.424 1.763 -1.278 2.392 -0.8 0.588 -1.756 0.882 -2.863 0.882 -0.964 0 -1.825 -0.239 -2.583 -0.711 -0.854 -0.533 -1.456 -1.292 -1.811 -2.283 -0.068 -0.198 -0.396 -1.278 -0.97 -3.239 -0.526 -1.777 -0.984 -3.171 -1.374 -4.176 -0.54 -1.374 -0.984 -2.037 -1.319 -1.996 -0.226 0.048 -0.376 0.137 -0.465 0.253 -0.089 0.123 -0.137 0.287 -0.137 0.506v11.433h-3.602V47.019c0 -1.114 0.451 -1.961 1.346 -2.542 0.772 -0.499 1.763 -0.752 2.973 -0.752 1.62 0 2.904 0.759 3.854 2.283q0.964 1.517 1.825 4.921c0.642 2.494 1.107 4.039 1.401 4.634 0.089 0.191 0.212 0.342 0.376 0.451q0.246 0.164 0.513 0.164c0.157 0 0.287 -0.048 0.383 -0.15s0.144 -0.253 0.144 -0.465V47.012c0 -1.114 0.451 -1.961 1.346 -2.542 0.772 -0.499 1.763 -0.752 2.973 -0.752 0.984 0 1.859 0.328 2.611 0.97 0.806 0.697 1.421 1.729 1.838 3.103l3.479 11.433Z" style="fill:#fff;"/><path d="M113.692 59.238h-5.317c-1.907 0 -3.417 -0.779 -4.517 -2.33 -0.998 -1.394 -1.49 -3.116 -1.49 -5.153s0.506 -3.848 1.517 -5.303c1.121 -1.62 2.617 -2.426 4.49 -2.426h5.317c1.873 0 3.369 0.813 4.49 2.426 1.011 1.462 1.517 3.233 1.517 5.317s-0.492 3.759 -1.476 5.146c-1.1 1.551 -2.611 2.33 -4.531 2.33m-0.601 -3.301q1.281 0 2.05 -1.394c0.472 -0.847 0.704 -1.866 0.704 -3.062s-0.226 -2.139 -0.683 -2.925c-0.506 -0.882 -1.196 -1.319 -2.078 -1.319h-4.121c-0.882 0 -1.572 0.437 -2.078 1.319 -0.451 0.786 -0.677 1.763 -0.677 2.925s0.232 2.228 0.69 3.062c0.513 0.929 1.203 1.394 2.064 1.394h4.121Z" style="fill:#fff;"/><path d="M134.447 53.784c0 1.763 -0.731 3.164 -2.187 4.21 -1.312 0.95 -2.925 1.421 -4.825 1.421s-3.403 -0.465 -4.668 -1.394c-1.415 -1.039 -2.119 -2.447 -2.119 -4.237V44.019h3.533v9.212c0 0.8 0.362 1.435 1.093 1.92 0.67 0.437 1.469 0.656 2.412 0.656s1.674 -0.212 2.296 -0.636c0.69 -0.472 1.039 -1.121 1.039 -1.941V44.019h3.424z" style="fill:#fff;"/><path d="M149.667 47.237h-8.666c-0.39 0 -0.697 0.137 -0.929 0.417 -0.226 0.28 -0.342 0.601 -0.342 0.977s0.109 0.677 0.328 0.929c0.219 0.26 0.533 0.383 0.936 0.383h5.105c1.38 0 2.467 0.485 3.267 1.449 0.718 0.868 1.08 1.934 1.08 3.205s-0.362 2.33 -1.08 3.205c-0.8 0.964 -1.886 1.442 -3.267 1.442h-9.288v-3.239h8.707q0.564 0 0.882 -0.431c0.212 -0.287 0.321 -0.615 0.321 -0.991s-0.103 -0.69 -0.308 -0.95 -0.499 -0.39 -0.895 -0.39h-5.119c-1.387 0 -2.481 -0.478 -3.294 -1.428 -0.731 -0.854 -1.093 -1.914 -1.093 -3.171s0.362 -2.296 1.093 -3.164c0.82 -0.964 1.914 -1.442 3.294 -1.442H149.667v3.219Z" style="fill:#fff;"/><path x="221.19" y="64.41" width="5.27" height="22.27" style="fill:#fff;" d="M151.164 44.019H154.765V59.238H151.164V44.019z"/><path d="M172.664 56.176c0 0.964 -0.424 1.763 -1.278 2.392 -0.8 0.588 -1.756 0.888 -2.863 0.888 -0.964 0 -1.825 -0.239 -2.583 -0.711 -0.854 -0.533 -1.456 -1.292 -1.811 -2.283 -0.068 -0.198 -0.396 -1.278 -0.97 -3.239 -0.526 -1.777 -0.984 -3.171 -1.374 -4.176 -0.54 -1.367 -0.984 -2.037 -1.319 -1.996 -0.219 0.048 -0.376 0.137 -0.465 0.253 -0.089 0.123 -0.13 0.287 -0.13 0.506v11.433h-3.602V47.032c0 -1.114 0.451 -1.961 1.346 -2.542 0.772 -0.499 1.763 -0.745 2.973 -0.745 1.62 0 2.904 0.759 3.854 2.283 0.642 1.011 1.244 2.652 1.825 4.921 0.642 2.494 1.107 4.039 1.401 4.634 0.157 0.321 0.403 0.485 0.731 0.485 0.178 0 0.328 -0.068 0.458 -0.198s0.191 -0.314 0.191 -0.547V43.902h3.629v12.281Z" style="fill:#fff;"/><path d="M187.87 59.238h-9.267c-1.387 0 -2.481 -0.485 -3.294 -1.456 -0.731 -0.875 -1.093 -1.948 -1.093 -3.219 0 -1.148 0.308 -2.139 0.923 -2.98 -0.615 -0.841 -0.923 -1.818 -0.923 -2.952 0 -1.244 0.362 -2.303 1.093 -3.171 0.806 -0.964 1.907 -1.442 3.294 -1.442h9.267v3.219h-8.666c-0.39 0 -0.697 0.137 -0.929 0.417 -0.226 0.273 -0.342 0.601 -0.342 0.977s0.109 0.677 0.328 0.929 0.533 0.383 0.936 0.383h8.666v3.287h-9.158c-0.239 0.103 -0.431 0.273 -0.567 0.526 -0.137 0.246 -0.205 0.526 -0.205 0.82 0 0.376 0.109 0.697 0.328 0.97s0.533 0.41 0.936 0.41h8.666v3.28Z" style="fill:#fff;"/></g></svg>